<svg width="95" height="73" viewBox="0 0 95 73" fill="none" xmlns="http://www.w3.org/2000/svg">
<path d="M27.5376 8.51405C26.9826 14.8801 27.1587 21.2739 27.1587 27.6662C25.2097 26.3112 23.1863 23.6141 21.1542 21.3906C19.1222 19.3759 17.4294 17.0923 15.1231 15.5334C14.3928 15.0398 13.377 14.2158 14.0087 15.5334C14.8838 17.3586 15.3627 19.4147 15.8364 21.3906C16.8342 25.553 18.0912 29.6078 19.135 33.7558C19.7721 36.2876 21.1409 39.1421 21.1409 41.7979C21.1409 42.6055 20.0183 42.3092 19.4916 42.3092H4.13513C1.46644 42.3092 1.3555 42.359 3.48877 43.4714C6.63218 45.1104 9.67593 46.9896 12.6269 49.0032C14.4305 50.2339 16.2328 51.8213 18.2435 52.6756C18.9973 52.9958 18.4623 53.4173 18.3326 54.0934C17.785 56.949 16.8817 59.6341 16.5496 62.5538C16.4061 63.8152 15.8564 66.2901 16.349 67.5743C16.4204 67.7606 19.5917 65.2408 19.7813 65.1105C22.4709 63.2635 25.2608 61.5665 27.7828 59.4625C29.263 58.2275 30.129 58.2256 31.653 56.9895C31.653 56.4597 34.1783 60.1684 34.38 60.6944C36.1256 65.2453 37.9893 65.1045 38.3696 70.0613C38.4575 71.2078 38.3947 71.2204 39.0382 70.5494C40.3006 69.2328 42.1115 68.1426 43.4958 66.9235C48.0638 62.9008 53.5544 58.3601 55.9549 52.4431C56.1567 51.9455 62.1898 60.6037 62.8641 61.5544C64.3796 63.6908 65.7961 65.1387 67.9904 66.4818C68.4818 66.7826 69.7504 67.1081 70.0632 67.5975C70.397 68.1197 70.0855 66.3424 70.0855 65.7148V60.6944V49.654C70.0855 48.5117 73.9158 47.1212 74.922 46.9113C80.3282 45.7838 85.5196 45.2636 90.7688 43.2389C91.1502 43.0918 93.3465 42.4093 92.953 42.2163C91.3406 41.4249 89.2748 41.1367 87.5593 40.6357C86.145 40.2228 70.3351 35.8755 70.7095 34.9645C72.0952 31.5928 74.2621 27.6892 76.7719 25.1327C79.3477 22.5091 82.182 20.215 84.8402 17.695C85.0362 17.5091 86.3788 16.6157 85.6425 16.8815C78.4703 19.4705 71.2681 22.0631 63.934 24.1333C63.4087 24.2815 59.7812 25.6636 59.2535 25.3884C59.2235 25.3728 59.0909 23.6253 59.0529 23.4825C57.9151 19.2109 57.463 14.3082 57.0693 9.90862C56.84 7.34675 56.9603 4.55111 56.4229 2.02928C56.3598 1.73298 54.5456 3.78018 54.4393 3.91195C49.2883 10.2971 45.1798 17.8223 40.5761 24.6446C40.2414 25.1405 34.9108 17.6188 34.38 16.7885C32.6093 14.0186 30.6714 11.3989 28.808 8.69999C28.1993 7.81835 27.6601 7.10817 27.5376 8.51405Z" stroke="black" stroke-width="3" stroke-linecap="round"/>
</svg>
