<svg width="201" height="83" viewBox="0 0 201 83" fill="none" xmlns="http://www.w3.org/2000/svg">
<path d="M43.2351 21.5355C44.9914 22.7788 48.2694 24.9326 50.6597 26.4469C52.8793 27.6166 54.5867 28.7863 54.5867 28.7863C54.5867 28.7863 58.3758 31.5356 58.9029 29.9104C59.4523 28.2168 60.9342 26.6324 61.4855 24.9326C63.1013 19.9512 66.1398 14.5203 69.4055 9.97578C69.89 9.30165 74.9183 1.86253 75.1217 2.00193C78.3176 4.19145 79.8676 8.02498 81.5955 10.7307C84.727 15.6344 88.1231 20.4304 91.5472 25.2393C91.9909 25.8625 92.9245 28.3203 93.8887 28.8488C94.5373 29.2042 108.442 10.9835 109.901 8.98494C110.835 7.70568 111.533 8.40387 112.793 9.31522C116.381 11.9099 117.855 17.3407 119.612 20.5682C120.632 22.4423 123.133 29.8395 125.81 25.3573C128.116 21.4957 129.315 17.3252 131.354 13.3965C132.069 12.0178 131.966 9.04376 134.487 10.5891C137.697 12.5563 140.586 14.7675 143.647 16.8644C147.514 19.5139 151.033 23.4762 155.527 25.5932C156.943 26.2603 158.469 25.3269 159.281 24.508C162.983 20.7695 166.658 16.6224 171.333 13.4201C171.694 13.1728 177.69 9.924 176.498 11.8631C175.001 14.2994 174.209 17.0756 173.158 19.6246C172.223 21.8918 165.584 30.3044 169.818 31.9156C172.647 32.9925 175.615 32.6706 178.908 32.6706C185.481 32.6706 192.009 33.0952 198.571 33.0952C200.036 33.0952 197.34 33.6285 196.608 33.9445C192.796 35.5888 188.43 36.8822 184.349 38.1909C182.773 38.6963 177.289 39.619 176.429 40.7388C176.012 41.2815 177.942 42.2363 178.357 42.5317C181.866 45.0281 184.203 49.1025 186.209 52.1805C186.985 53.3725 189.557 56.2734 189.377 57.6301C189.349 57.8349 186.66 57.7278 186.415 57.7245C178.765 57.6217 171.358 56.4505 163.654 56.4505C163.161 56.4505 157.241 56.1705 157.077 56.5449C156.871 57.0136 157.421 58.4384 157.421 58.9984C157.421 61.1502 157.892 63.4003 158.179 65.5568C158.257 66.148 159.281 73.1768 157.731 72.351C152.972 69.8154 148.084 67.4802 143.027 65.1793C137.062 62.4651 130.918 60.0231 124.708 57.5829C123.616 57.1538 119.042 54.8533 117.511 55.4361C116.148 55.9547 115.016 59.2457 114.515 60.1308C112.964 62.8706 111.171 65.6635 110.452 68.5764C109.928 70.7005 107.053 68.7074 105.046 67.8923C100.51 66.0508 95.0091 64.9625 90.7552 62.9145C89.2446 62.1873 88.2847 61.0966 87.9659 62.8438C87.4333 65.763 86.0628 68.9428 84.9012 71.7848C84.6039 72.5123 81.7956 81.4078 80.5624 80.9854C79.8644 80.7463 79.2104 79.7289 78.6341 79.334C76.7815 78.0648 74.8891 76.8173 73.0901 75.5123C67.1066 71.1719 62.0607 66.7127 56.6647 62.0653C55.0034 60.6345 55.2455 63.5178 54.8396 64.5187C53.665 67.4158 52.2019 70.2522 51.5683 73.2475C51.0082 75.8952 49.9794 74.8821 48.5725 73.1767C44.7285 68.5175 38.9606 64.6623 34.9707 60.0364C33.6978 58.5606 33.8149 56.79 30.8385 57.3942C28.817 57.8045 26.7879 57.5543 24.778 57.9368C21.1632 58.6247 17.7556 59.6869 14.2409 60.6026C11.6273 61.2835 9.35472 62.1348 6.87186 62.9853C5.72224 63.3791 5.75815 63.1113 6.49308 62.6078C9.36834 60.638 11.7313 57.8207 14.2409 55.6012C17.5455 52.6786 21.6104 48.6417 26.5686 46.9433C28.5505 46.2644 25.5845 45.0007 24.6402 44.0415C21.3216 40.6703 16.0692 37.6045 11.7616 34.8174C8.92915 32.9847 -0.786121 28.614 2.77411 29.6981C8.22458 31.3577 15.49 31.5741 21.3689 32.4582C22.983 32.701 29.9385 35.316 31.4583 34.2748C32.5207 33.5469 31.5961 29.5272 31.5961 28.6129C31.5961 24.4872 31.2643 20.293 30.4942 16.2039C30.1051 14.1381 30.3179 12.84 33.4211 14.4345C37.2623 16.4082 39.9239 19.1914 43.2351 21.5355Z" stroke="black" stroke-width="3" stroke-linecap="round"/>
</svg>
